<?xml version="1.0" encoding="utf-8"?>
<!-- Generator: Adobe Illustrator 18.0.0, SVG Export Plug-In . SVG Version: 6.00 Build 0)  -->
<!DOCTYPE svg PUBLIC "-//W3C//DTD SVG 1.1//EN" "http://www.w3.org/Graphics/SVG/1.1/DTD/svg11.dtd">
<svg version="1.1" id="Layer_1" xmlns="http://www.w3.org/2000/svg" xmlns:xlink="http://www.w3.org/1999/xlink" x="0px" y="0px"
	 viewBox="0 0 1400 980" enable-background="new 0 0 1400 980" xml:space="preserve">
<g>
	<rect fill="#D1ECEB" width="1400" height="980"/>
	<g>
		<g>
			<polygon fill="#F26522" points="126.9,304.6 81.5,319.7 81.5,362.4 126.9,371.7 			"/>
			<path fill="#1F2121" d="M130.4,376L78,365.3v-48.2l52.4-17.3V376z M85,359.6l38.4,7.9v-58L85,322.2V359.6z"/>
		</g>
		<g>
			<polygon fill="#0A82A3" points="81.5,386.1 68.2,399 54.8,386.1 54.8,298.3 68.2,260.7 81.5,298.3 			"/>
			<path fill="#1F2121" d="M68.1,403.9l-16.9-16.3v-89.9l16.9-47.4L85,297.7v89.9L68.1,403.9z M58.3,384.6l9.9,9.5l9.9-9.5v-85.8
				l-9.9-27.7l-9.9,27.7V384.6z"/>
		</g>
		<g>
			<polygon fill="#F26522" points="228.4,210.4 192.8,89.9 181.2,85.4 169.7,89.9 134,210.4 126.9,304.6 126.9,371.7 147.4,404.8 
				181.2,425 215.1,404.8 235.6,371.7 235.6,304.6 			"/>
			<path fill="#1F2121" d="M181.2,429.1l-36.4-21.8l-21.5-34.6l0-68.4l7.2-94.7l36.2-122.5l14.4-5.6l14.4,5.6l36.2,122.5l0,0.4
				l7.1,94.6v68.1l-21.5,34.6L181.2,429.1z M149.9,402.2l31.3,18.8l31.3-18.8l19.5-31.5v-66L225,211L190,92.5l-8.7-3.4l-8.7,3.4
				l-35,118.5l-7.1,93.8v66L149.9,402.2z"/>
		</g>
		<g>
			<polygon fill="#F26522" points="235.6,304.6 281,319.7 281,362.4 235.6,371.7 			"/>
			<path fill="#1F2121" d="M232.1,376v-76.2l52.4,17.3v48.2L232.1,376z M239.1,309.5v58l38.4-7.9v-37.4L239.1,309.5z"/>
		</g>
		<g>
			<polygon fill="#0A82A3" points="281,386.1 294.3,399 307.7,386.1 307.7,298.3 294.3,260.7 281,298.3 			"/>
			<path fill="#1F2121" d="M294.3,403.9l-16.9-16.3v-89.9l16.9-47.4l16.9,47.4v89.9L294.3,403.9z M284.5,384.6l9.9,9.5l9.9-9.5
				v-85.8l-9.9-27.7l-9.9,27.7V384.6z"/>
		</g>
		<g>
			<polygon fill="#F26522" points="181.2,278.4 144.6,301.8 144.6,362 181.2,362 217.9,362 217.9,301.8 			"/>
			<path fill="#1F2121" d="M221.4,365.5h-80.4v-65.6l40.2-25.6l40.2,25.6V365.5z M148.1,358.5h66.4v-54.8l-33.2-21.2l-33.2,21.2
				V358.5z"/>
		</g>
		<g>
			<polygon fill="#0A82A3" points="181.2,250.5 144.6,290.1 144.6,301.8 181.2,278.4 217.9,301.8 217.9,290.1 			"/>
			<path fill="#1F2121" d="M221.4,308.2l-40.2-25.6l-40.2,25.6v-19.5l40.2-43.4l40.2,43.4V308.2z M181.2,274.3l33.2,21.2v-3.9
				l-33.2-35.8l-33.2,35.8v3.9L181.2,274.3z"/>
		</g>
		<g>
			<polygon fill="#0A82A3" points="155.7,137.2 165.9,152.8 157.4,186.7 137.5,198.8 			"/>
			<path fill="#1F2121" d="M131.5,206.5l22.9-77.6l15.2,23.3l-9.2,36.8L131.5,206.5z M156.9,145.4l-13.5,45.7l11-6.7l7.8-31
				L156.9,145.4z"/>
		</g>
		<g>
			<polygon fill="#0A82A3" points="206.8,137.2 196.6,152.8 205.1,186.7 225,198.8 			"/>
			<path fill="#1F2121" d="M231,206.5L202,189l-9.2-36.8l15.2-23.3L231,206.5z M208.1,184.5l11,6.7l-13.5-45.7l-5.2,8L208.1,184.5z"
				/>
		</g>
		<g>
			<path fill="#1F2121" d="M181.2,281.9c-1.9,0-3.5-1.6-3.5-3.5v-193c0-1.9,1.6-3.5,3.5-3.5s3.5,1.6,3.5,3.5v193
				C184.7,280.4,183.2,281.9,181.2,281.9z"/>
		</g>
		<g>
			<path fill="#1F2121" d="M114.1,337.4c-1.9,0-3.5-1.6-3.5-3.5v-25c0-1.9,1.6-3.5,3.5-3.5s3.5,1.6,3.5,3.5v25
				C117.6,335.8,116.1,337.4,114.1,337.4z"/>
		</g>
		<g>
			<path fill="#1F2121" d="M95.2,343.4c-1.9,0-3.5-1.6-3.5-3.5v-24.7c0-1.9,1.6-3.5,3.5-3.5s3.5,1.6,3.5,3.5v24.7
				C98.7,341.8,97.1,343.4,95.2,343.4z"/>
		</g>
		<g>
			<path fill="#1F2121" d="M248.4,337.4c-1.9,0-3.5-1.6-3.5-3.5v-25c0-1.9,1.6-3.5,3.5-3.5s3.5,1.6,3.5,3.5v25
				C251.9,335.8,250.3,337.4,248.4,337.4z"/>
		</g>
		<g>
			<path fill="#1F2121" d="M267.3,343.4c-1.9,0-3.5-1.6-3.5-3.5v-24.7c0-1.9,1.6-3.5,3.5-3.5s3.5,1.6,3.5,3.5v24.7
				C270.8,341.8,269.2,343.4,267.3,343.4z"/>
		</g>
		<g>
			<path fill="#1F2121" d="M155.3,213.9H134c-1.9,0-3.5-1.6-3.5-3.5s1.6-3.5,3.5-3.5h21.2c1.9,0,3.5,1.6,3.5,3.5
				S157.2,213.9,155.3,213.9z"/>
		</g>
		<g>
			<path fill="#1F2121" d="M151.7,227.7H133c-1.9,0-3.5-1.6-3.5-3.5s1.6-3.5,3.5-3.5h18.7c1.9,0,3.5,1.6,3.5,3.5
				S153.6,227.7,151.7,227.7z"/>
		</g>
		<g>
			<path fill="#1F2121" d="M228.4,213.9h-21.2c-1.9,0-3.5-1.6-3.5-3.5s1.6-3.5,3.5-3.5h21.2c1.9,0,3.5,1.6,3.5,3.5
				S230.4,213.9,228.4,213.9z"/>
		</g>
		<g>
			<path fill="#1F2121" d="M229.5,227.7h-18.7c-1.9,0-3.5-1.6-3.5-3.5s1.6-3.5,3.5-3.5h18.7c1.9,0,3.5,1.6,3.5,3.5
				S231.4,227.7,229.5,227.7z"/>
		</g>
		<g>
			<polygon fill="#F26522" points="54.8,311.2 68.2,321.3 68.2,356.7 54.8,371.7 			"/>
			<path fill="#1F2121" d="M51.3,380.9v-76.8l20.4,15.5V358L51.3,380.9z M58.3,318.2v44.3l6.4-7.2v-32.3L58.3,318.2z"/>
		</g>
		<g>
			<polygon fill="#F26522" points="307.7,311.2 294.3,321.3 294.3,356.7 307.7,371.7 			"/>
			<path fill="#1F2121" d="M311.2,380.9L290.8,358v-38.5l20.4-15.5V380.9z M297.8,355.4l6.4,7.2v-44.3l-6.4,4.8V355.4z"/>
		</g>
		<g>
			<polygon fill="#0A82A3" points="147.4,404.8 181.2,374.1 215.1,404.8 181.2,425 			"/>
			<path fill="#1F2121" d="M181.2,428.5c-0.6,0-1.2-0.2-1.8-0.5l-33.8-20.3c-1-0.6-1.6-1.6-1.7-2.7c-0.1-1.1,0.3-2.2,1.1-2.9
				l33.8-30.7c1.3-1.2,3.4-1.2,4.7,0l33.8,30.7c0.8,0.7,1.2,1.8,1.1,2.9c-0.1,1.1-0.7,2.1-1.7,2.7L183,428
				C182.5,428.4,181.9,428.5,181.2,428.5z M153.3,404.2l28,16.8l28-16.8l-28-25.4L153.3,404.2z"/>
		</g>
	</g>
	<g>
		<g>
			<path fill="#0A82A3" d="M871.5,199.1c0,0-24.2,62-69.3,93.5c-45.1,31.4-48.4,75.7-48.4,75.7h109.6L871.5,199.1z"/>
			<path fill="#1F2121" d="M866.8,371.8H750.1l0.3-3.8c0.1-1.9,3.9-46.4,49.8-78.4c43.7-30.5,67.8-91.3,68-91.9l7.8-20L866.8,371.8z
				 M757.9,364.8h102.2l7-147.7c-10.5,20.9-31.6,56.5-62.9,78.3C768.5,320.3,759.8,353.7,757.9,364.8z"/>
		</g>
		<g>
			<path fill="#0A82A3" d="M939.9,199.1c0,0,24.2,62,69.3,93.5c45.1,31.4,48.4,75.7,48.4,75.7H947.9L939.9,199.1z"/>
			<path fill="#1F2121" d="M1061.3,371.8H944.6l-9.2-193.9l7.8,19.9c0.2,0.6,24.3,61.4,68,91.9c46,32,49.7,76.5,49.8,78.4
				L1061.3,371.8z M951.3,364.8h102.2c-2-11.1-10.7-44.6-46.3-69.4c-31.3-21.8-52.5-57.4-62.9-78.3L951.3,364.8z"/>
		</g>
		<g>
			<rect x="869.8" y="365.1" fill="#0A82A3" width="71.7" height="45.1"/>
			<path fill="#1F2121" d="M945.1,413.7h-78.7v-52.1h78.7V413.7z M873.3,406.7h64.7v-38.1h-64.7V406.7z"/>
		</g>
		<g>
			<path fill="#F26522" d="M905.7,79.8c-47.2,22.5-45.7,76.4-45.7,76.4v226.3h45.7h45.7V156.3C951.4,156.3,952.9,102.3,905.7,79.8z"
				/>
			<path fill="#1F2121" d="M954.9,386h-98.4V156.3c0-0.5-0.3-14.2,5.3-30.9c7.5-22.2,22.2-39.1,42.4-48.7l1.5-0.7l1.5,0.7
				c20.2,9.6,34.8,26.4,42.4,48.7c5.7,16.7,5.4,30.4,5.3,31L954.9,386z M863.5,379h84.4V156.3c0-0.6,0.8-50.9-42.2-72.5
				c-43.1,21.7-42.2,71.9-42.2,72.4L863.5,379z"/>
		</g>
		<g>
			<rect x="840.4" y="299.1" fill="#1F2121" width="7" height="69.2"/>
		</g>
		<g>
			<rect x="809.2" y="325.9" fill="#1F2121" width="7" height="42.4"/>
		</g>
		<g>
			<rect x="964" y="299.1" fill="#1F2121" width="7" height="69.2"/>
		</g>
		<g>
			<rect x="995.2" y="325.9" fill="#1F2121" width="7" height="42.4"/>
		</g>
		<g>
			<rect x="860" y="152.8" fill="#1F2121" width="91.4" height="7"/>
		</g>
		<g>
			<path fill="#0A82A3" d="M915.3,430.6h-19.1V285.4c0-5.3,4.3-9.6,9.6-9.6l0,0c5.3,0,9.6,4.3,9.6,9.6V430.6z"/>
			<path fill="#1F2121" d="M918.8,434.1h-26.1V285.4c0-7.2,5.9-13.1,13.1-13.1s13.1,5.9,13.1,13.1V434.1z M899.6,427.1h12.1V285.4
				c0-3.3-2.7-6.1-6.1-6.1s-6.1,2.7-6.1,6.1V427.1z"/>
		</g>
		<g>
			<path fill="#0A82A3" d="M905.7,129.6c0,0-26,1-32,17.3h32h32C931.7,130.6,905.7,129.6,905.7,129.6z"/>
			<path fill="#1F2121" d="M942.7,150.4h-74l1.7-4.7c6.7-18.3,34-19.5,35.1-19.6l0.1,0l0.1,0c1.2,0,28.4,1.3,35.1,19.6L942.7,150.4z
				 M879.8,143.4h51.8c-7.6-9-24.2-10.2-25.9-10.3C904,133.2,887.4,134.4,879.8,143.4z"/>
		</g>
		<g>
			<rect x="860" y="169.1" fill="#1F2121" width="36.2" height="7"/>
		</g>
		<g>
			<rect x="860" y="182.3" fill="#1F2121" width="36.2" height="7"/>
		</g>
		<g>
			<rect x="915.3" y="169.1" fill="#1F2121" width="36.2" height="7"/>
		</g>
		<g>
			<rect x="915.3" y="182.3" fill="#1F2121" width="36.2" height="7"/>
		</g>
		<g>
			<polygon fill="#0A82A3" points="860,248.1 884.3,264.2 884.3,316 860,327.6 			"/>
			<path fill="#1F2121" d="M860,331.1c-0.7,0-1.3-0.2-1.9-0.5c-1-0.6-1.6-1.8-1.6-3v-79.5c0-1.3,0.7-2.5,1.8-3.1
				c1.1-0.6,2.5-0.5,3.6,0.2l24.3,16.1c1,0.6,1.6,1.7,1.6,2.9V316c0,1.4-0.8,2.6-2,3.2l-24.3,11.6C861,331,860.5,331.1,860,331.1z
				 M863.5,254.6v67.4l17.3-8.2v-47.7L863.5,254.6z"/>
		</g>
		<g>
			<polygon fill="#0A82A3" points="951.4,248.1 927.1,264.2 927.1,316 951.4,327.6 			"/>
			<path fill="#1F2121" d="M951.4,331.1c-0.5,0-1-0.1-1.5-0.3l-24.3-11.6c-1.2-0.6-2-1.8-2-3.2v-51.8c0-1.2,0.6-2.3,1.6-2.9
				l24.3-16.1c1.1-0.7,2.5-0.8,3.6-0.2c1.1,0.6,1.8,1.8,1.8,3.1v79.5c0,1.2-0.6,2.3-1.6,3C952.7,330.9,952.1,331.1,951.4,331.1z
				 M930.6,313.8l17.3,8.2v-67.4l-17.3,11.4V313.8z"/>
		</g>
	</g>
	<g>
		<g>
			<path fill="#0A82A3" d="M712.8,771.3L632.4,830c-7,5.1-11.2,13.3-11.2,22.1v22.5l112.7-25.4L712.8,771.3z"/>
			<path fill="#1F2121" d="M617.7,878.9v-26.8c0-9.8,4.7-19.1,12.6-24.9l84.5-61.7l23.4,86.2L617.7,878.9z M710.7,777.2l-76.3,55.7
				c-6.1,4.5-9.8,11.7-9.8,19.2v18.1l104.9-23.7L710.7,777.2z"/>
		</g>
		<g>
			<path fill="#0A82A3" d="M815.7,771.3l80.4,58.7c7,5.1,11.2,13.3,11.2,22.1v22.5l-112.7-25.4L815.7,771.3z"/>
			<path fill="#1F2121" d="M910.8,878.9l-120.6-27.2l23.4-86.2l84.5,61.7c7.9,5.8,12.6,15.1,12.6,24.9V878.9z M798.9,846.5
				l104.9,23.7v-18.1c0-7.6-3.7-14.8-9.8-19.2l-76.3-55.7L798.9,846.5z"/>
		</g>
		<g>
			<path fill="#F26522" d="M757.8,558.7c-22.8,23.5-94,117.9-24.4,328.3v18.5h30.9h30.9V887c69.6-210.4-1.6-304.8-24.4-328.3
				C767.2,555,761.3,555,757.8,558.7z"/>
			<path fill="#1F2121" d="M798.6,908.9h-68.8v-21.4c-69.7-211.3,1.8-307,25.4-331.3c2.4-2.5,5.6-3.8,9-3.8s6.6,1.4,9,3.8
				c23.6,24.3,95.1,120,25.4,331.3V908.9z M736.9,901.9h54.8v-15.5l0.2-0.5c68.8-207.9-0.7-301.1-23.6-324.7c-1.1-1.1-2.5-1.7-4-1.7
				s-2.9,0.6-4,1.7c-22.9,23.6-92.3,116.8-23.6,324.7l0.2,0.5V901.9z"/>
		</g>
		<g>
			<rect x="760.7" y="631.7" fill="#1F2121" width="7" height="273.8"/>
		</g>
		<g>
			<path fill="#0A82A3" d="M764.2,631.7c16.2,0,31.6-2.3,45.4-6.5c-12.5-35.8-29.7-57-39-66.5c-3.6-3.7-9.4-3.7-13,0
				c-9.2,9.5-26.4,30.7-39,66.5C732.7,629.3,748.1,631.7,764.2,631.7z"/>
			<path fill="#1F2121" d="M764.2,635.2c-16.2,0-31.8-2.2-46.5-6.6l-3.5-1.1l1.2-3.5c12.8-36.5,30.4-58.1,39.7-67.8
				c2.4-2.5,5.6-3.8,9-3.8c3.4,0,6.6,1.4,9,3.8c9.4,9.6,27,31.3,39.7,67.8l1.2,3.5l-3.5,1.1C796,632.9,780.4,635.2,764.2,635.2z
				 M723.4,622.8c13,3.5,26.7,5.3,40.9,5.3s27.9-1.8,40.9-5.3c-12.2-33.1-28.3-52.8-36.9-61.7c-1.1-1.1-2.5-1.7-4-1.7
				s-2.9,0.6-4,1.7C751.6,570,735.6,589.7,723.4,622.8z"/>
		</g>
		<g>
			<path fill="#0A82A3" d="M764.2,763.2c-5.4,0-9.9,4.4-9.9,9.9V893h19.7V773.1C774.1,767.6,769.7,763.2,764.2,763.2z"/>
			<path fill="#1F2121" d="M777.6,896.5h-26.7V773.1c0-7.4,6-13.4,13.4-13.4s13.4,6,13.4,13.4V896.5z M757.9,889.5h12.7V773.1
				c0-3.5-2.8-6.4-6.4-6.4s-6.4,2.8-6.4,6.4V889.5z"/>
		</g>
		<g>
			
				<rect x="676.7" y="799.6" transform="matrix(0.2291 0.9734 -0.9734 0.2291 1313.4539 -52.38)" fill="#1F2121" width="26.2" height="7"/>
		</g>
		<g>
			
				<rect x="652.8" y="815.6" transform="matrix(0.2585 0.966 -0.966 0.2585 1282.1998 -32.3113)" fill="#1F2121" width="18.7" height="7"/>
		</g>
		<g>
			
				<rect x="835.2" y="789.9" transform="matrix(0.9734 0.2291 -0.2291 0.9734 206.2446 -170.7565)" fill="#1F2121" width="7" height="26.2"/>
		</g>
		<g>
			
				<rect x="862.8" y="809.7" transform="matrix(0.966 0.2587 -0.2587 0.966 241.3407 -196.2088)" fill="#1F2121" width="7" height="18.7"/>
		</g>
		<g>
			<rect x="730.4" y="628.8" fill="#1F2121" width="7" height="28.4"/>
		</g>
		<g>
			<rect x="730.4" y="665.5" fill="#1F2121" width="7" height="11.1"/>
		</g>
		<g>
			<rect x="791.1" y="628.8" fill="#1F2121" width="7" height="28.4"/>
		</g>
		<g>
			<rect x="791.1" y="665.5" fill="#1F2121" width="7" height="11.1"/>
		</g>
		<g>
			
				<rect x="666.1" y="798.1" transform="matrix(0.2973 0.9548 -0.9548 0.2973 1281.0217 -42.8465)" fill="#1F2121" width="7" height="101.5"/>
		</g>
		<g>
			
				<rect x="808.1" y="845.4" transform="matrix(0.9548 0.2973 -0.2973 0.9548 291.1905 -216.957)" fill="#1F2121" width="101.5" height="7"/>
		</g>
	</g>
	<g>
		<g>
			<polygon fill="#0A82A3" points="1161.5,254.6 1109.4,331.9 1109.4,385.1 1161.5,330.8 			"/>
			<path fill="#1F2121" d="M1105.9,393.8v-63l59.1-87.6v89L1105.9,393.8z M1112.9,332.9v43.5l45.1-47.1v-63.3L1112.9,332.9z"/>
		</g>
		<g>
			<polygon fill="#F26522" points="1109.4,280.6 1109.4,420.9 1085.7,397.1 1085.7,355.9 			"/>
			<path fill="#1F2121" d="M1112.9,429.3l-30.7-30.7v-43.2l30.7-97.6V429.3z M1089.2,395.7l16.7,16.7V303.3l-16.7,53.1V395.7z"/>
		</g>
		<g>
			<polygon fill="#F26522" points="1233.7,172.3 1208.8,89.6 1184,172.3 1161.5,254.6 1161.5,330.8 1208.8,380.4 1256.1,330.8 
				1256.1,254.6 			"/>
			<path fill="#1F2121" d="M1208.8,385.5l-50.8-53.3v-78l0.1-0.5l22.5-82.3l28.2-94l28.2,93.9l22.6,82.8v78L1208.8,385.5z
				 M1165,329.4l43.8,46l43.8-46v-74.3l-22.3-81.8l-21.4-71.5l-21.5,71.6l-22.3,81.7V329.4z"/>
		</g>
		<g>
			<polygon fill="#0A82A3" points="1227.8,263.9 1208.8,231.3 1189.9,263.9 1172.7,296.4 1172.7,326.5 1208.8,346.1 1245,326.5 
				1245,296.4 			"/>
			<path fill="#1F2121" d="M1208.8,350.1l-39.6-21.5v-33l17.6-33.4l22-37.9l22.1,38l17.6,33.3v33L1208.8,350.1z M1176.2,324.4
				l32.6,17.7l32.6-17.7v-27.1l-16.7-31.7l-15.9-27.4l-15.9,27.4l-16.7,31.7V324.4z"/>
		</g>
		<g>
			<polygon fill="#0A82A3" points="1256.1,254.6 1308.2,331.9 1308.2,385.1 1256.1,330.8 			"/>
			<path fill="#1F2121" d="M1311.7,393.8l-59.1-61.7v-89l59.1,87.6V393.8z M1259.6,329.3l45.1,47.1v-43.5l-45.1-66.9V329.3z"/>
		</g>
		<g>
			<polygon fill="#F26522" points="1308.2,280.6 1308.2,420.9 1332,397.1 1332,355.9 			"/>
			<path fill="#1F2121" d="M1304.7,429.3V257.8l30.7,97.6v43.2L1304.7,429.3z M1311.7,303.3v109.1l16.7-16.7v-39.2L1311.7,303.3z"/>
		</g>
		<g>
			<polygon fill="#0A82A3" points="1187.5,160.5 1197.2,179 1187.5,222.6 1166.9,235 			"/>
			<path fill="#1F2121" d="M1161.2,242.5l25.4-91.5l14.4,27.5l-10.3,46.3L1161.2,242.5z M1188.6,170l-15.9,57.5l11.8-7.1l9.1-40.9
				L1188.6,170z"/>
		</g>
		<g>
			<polygon fill="#0A82A3" points="1230.1,160.5 1220.4,179 1230.1,222.6 1250.8,235 			"/>
			<path fill="#1F2121" d="M1256.5,242.5l-29.5-17.7l-10.3-46.3l14.4-27.5L1256.5,242.5z M1233.2,220.4l11.8,7.1l-15.9-57.5l-5,9.5
				L1233.2,220.4z"/>
		</g>
		<g>
			<rect x="1308.2" y="355.9" fill="#0A82A3" width="23.7" height="29.2"/>
			<path fill="#1F2121" d="M1335.5,388.6h-30.7v-36.2h30.7V388.6z M1311.7,381.6h16.7v-22.2h-16.7V381.6z"/>
		</g>
		<g>
			<rect x="1085.7" y="355.9" fill="#0A82A3" width="23.7" height="29.2"/>
			<path fill="#1F2121" d="M1112.9,388.6h-30.7v-36.2h30.7V388.6z M1089.2,381.6h16.7v-22.2h-16.7V381.6z"/>
		</g>
		<g>
			<rect x="1205.3" y="89.6" fill="#1F2121" width="7" height="73.5"/>
		</g>
		<g>
			<rect x="1205.3" y="170.8" fill="#1F2121" width="7" height="12.9"/>
		</g>
		<g>
			<rect x="1205.3" y="193.5" fill="#1F2121" width="7" height="9.3"/>
		</g>
		<g>
			<polygon fill="#F26522" points="1145.5,278.3 1145.5,298.9 1134.2,315 1119.6,316.8 			"/>
			<path fill="#1F2121" d="M1112.3,321.3l36.7-54.4V300l-12.9,18.3L1112.3,321.3z M1142,289.8l-15.3,22.6l5.5-0.7l9.8-13.9V289.8z"
				/>
		</g>
		<g>
			<polygon fill="#F26522" points="1272.1,278.3 1272.1,298.9 1283.4,315 1298.1,316.8 			"/>
			<path fill="#1F2121" d="M1305.3,321.3l-23.8-3l-12.9-18.3v-33.1L1305.3,321.3z M1285.4,311.7l5.5,0.7l-15.3-22.6v8L1285.4,311.7z
				"/>
		</g>
	</g>
	<g>
		<g>
			<g>
				<path fill="#F26522" d="M100.8,658.8C82.4,676.2,83,718.2,83,718.2v175.9h17.8h17.8V718.2C118.6,718.2,119.2,676.2,100.8,658.8z
					"/>
				<path fill="#1F2121" d="M122.1,897.6H79.5V718.2c0-1.7-0.4-43.6,18.9-62l2.4-2.3l2.4,2.3c19.3,18.3,19,60.2,18.9,62L122.1,897.6
					z M86.5,890.6h28.7V718.2c0-0.4,0.3-36.8-14.3-54.3c-14.6,17.5-14.3,53.9-14.3,54.3L86.5,890.6z"/>
			</g>
			<g>
				<polygon fill="#0A82A3" points="121.6,903.5 80,903.5 83,878.5 118,878.5 				"/>
				<path fill="#1F2121" d="M125.6,907H76.1l3.7-32h41.2L125.6,907z M84,900h33.6l-2.6-18H86.1L84,900z"/>
			</g>
		</g>
		<g>
			<g>
				<path fill="#F26522" d="M237.9,658.8c18.4,17.5,17.8,59.4,17.8,59.4v175.9h-17.8H220V718.2C220,718.2,219.4,676.2,237.9,658.8z"
					/>
				<path fill="#1F2121" d="M259.2,897.6h-42.7V718.2c0-1.7-0.4-43.6,18.9-62l2.4-2.3l2.4,2.3c19.3,18.3,19,60.2,18.9,62
					L259.2,897.6z M223.5,890.6h28.7V718.2c0-0.4,0.3-36.8-14.3-54.3c-14.6,17.5-14.3,53.9-14.3,54.3L223.5,890.6z"/>
			</g>
			<g>
				<polygon fill="#0A82A3" points="217.1,903.5 258.6,903.5 255.7,878.5 220.6,878.5 				"/>
				<path fill="#1F2121" d="M262.6,907h-49.5l4.5-32h41.2L262.6,907z M221.1,900h33.6l-2.1-18h-28.9L221.1,900z"/>
			</g>
		</g>
		<g>
			<path fill="#0A82A3" d="M169.3,557.8c-31.9,39.1-40.5,90.3-40.5,90.3v200.6h40.5h40.5V648.1C209.9,648.1,199.2,597.4,169.3,557.8
				z"/>
			<path fill="#1F2121" d="M213.4,852.2h-88l0-204.6c0.4-2.1,9.2-52.5,41.3-91.9l2.8-3.5l2.7,3.6c30,39.8,40.7,89.6,41.2,91.7
				l0.1,0.4V852.2z M132.3,845.2h74V648.5c-1-4.3-11.3-48.6-37.1-84.9c-27.5,35.9-36.2,80.9-36.9,84.8V845.2z"/>
		</g>
		<g>
			<g>
				<path fill="#0A82A3" d="M147,747.8c0,0-15.8,40.6-45.3,61.2S70,858.5,70,858.5h71.7L147,747.8z"/>
				<path fill="#1F2121" d="M145,862H66.2l0.3-3.8c0.1-1.3,2.6-30.9,33.1-52.2c28.3-19.7,43.9-59.2,44.1-59.6l7.8-20L145,862z
					 M74.1,855h64.3l4.3-90c-7.5,14-20.6,34-39,46.8C82.1,826.9,75.8,846.8,74.1,855z"/>
			</g>
			<g>
				<path fill="#0A82A3" d="M191.7,747.8c0,0,15.8,40.6,45.3,61.2s31.6,49.6,31.6,49.6H197L191.7,747.8z"/>
				<path fill="#1F2121" d="M272.4,862h-78.8l-6.4-135.4l7.8,19.9c0.2,0.4,15.8,39.9,44.1,59.6c30.5,21.3,33,50.9,33.1,52.2
					L272.4,862z M200.3,855h64.3c-1.7-8.2-7.9-28.2-29.5-43.2C216.6,799,203.6,779,196,765L200.3,855z"/>
			</g>
			<g>
				<rect x="145.9" y="856.4" fill="#0A82A3" width="46.9" height="29.5"/>
				<path fill="#1F2121" d="M196.3,889.4h-53.9v-36.5h53.9V889.4z M149.4,882.4h39.9v-22.5h-39.9V882.4z"/>
			</g>
			<g>
				<path fill="#F26522" d="M169.3,669.8c-30.9,14.7-29.9,90-29.9,90v108h29.9h29.9v-108C199.2,759.8,200.2,684.5,169.3,669.8z"/>
				<path fill="#1F2121" d="M202.7,871.3h-66.8V759.8c0-3.1-0.6-77.7,31.9-93.2l1.5-0.7l1.5,0.7c32.5,15.5,31.9,90.1,31.9,93.3
					L202.7,871.3z M142.9,864.3h52.8V759.8c0-0.8,0.6-70.7-26.4-86.1c-27,15.4-26.4,85.3-26.4,86.1L142.9,864.3z"/>
			</g>
			<g>
				<rect x="125.4" y="813.2" fill="#1F2121" width="7" height="45.3"/>
			</g>
			<g>
				<rect x="105" y="830.8" fill="#1F2121" width="7" height="27.7"/>
			</g>
			<g>
				<rect x="206.3" y="813.2" fill="#1F2121" width="7" height="45.3"/>
			</g>
			<g>
				<rect x="226.7" y="830.8" fill="#1F2121" width="7" height="27.7"/>
			</g>
			<g>
				<path fill="#0A82A3" d="M175.6,899.3h-12.5v-95c0-3.5,2.8-6.2,6.2-6.2l0,0c3.5,0,6.2,2.8,6.2,6.2V899.3z"/>
				<path fill="#1F2121" d="M179.1,902.8h-19.5v-98.5c0-5.4,4.4-9.7,9.7-9.7s9.7,4.4,9.7,9.7V902.8z M166.6,895.8h5.5v-91.5
					c0-1.5-1.2-2.7-2.7-2.7s-2.7,1.2-2.7,2.7V895.8z"/>
			</g>
			<g>
				<polygon fill="#0A82A3" points="139.4,779.9 155.3,790.4 155.3,824.3 139.4,831.9 				"/>
				<path fill="#1F2121" d="M139.4,835.4c-0.7,0-1.3-0.2-1.9-0.5c-1-0.6-1.6-1.8-1.6-3v-52c0-1.3,0.7-2.5,1.8-3.1
					c1.1-0.6,2.5-0.5,3.6,0.2l15.9,10.5c1,0.6,1.6,1.7,1.6,2.9v33.9c0,1.4-0.8,2.6-2,3.2l-15.9,7.6
					C140.4,835.3,139.9,835.4,139.4,835.4z M142.9,786.4v39.9l8.9-4.2v-29.8L142.9,786.4z"/>
			</g>
			<g>
				<polygon fill="#0A82A3" points="199.2,779.9 183.3,790.4 183.3,824.3 199.2,831.9 				"/>
				<path fill="#1F2121" d="M199.2,835.4c-0.5,0-1-0.1-1.5-0.3l-15.9-7.6c-1.2-0.6-2-1.8-2-3.2v-33.9c0-1.2,0.6-2.3,1.6-2.9
					l15.9-10.5c1.1-0.7,2.5-0.8,3.6-0.2c1.1,0.6,1.8,1.8,1.8,3.1v52c0,1.2-0.6,2.3-1.6,3C200.5,835.2,199.9,835.4,199.2,835.4z
					 M186.8,822.1l8.9,4.2v-39.9l-8.9,5.9V822.1z"/>
			</g>
		</g>
		<g>
			<rect x="83" y="721.7" fill="#1F2121" width="17.8" height="7"/>
		</g>
		<g>
			<rect x="83" y="741.7" fill="#1F2121" width="17.8" height="7"/>
		</g>
		<g>
			<rect x="237.9" y="721.7" fill="#1F2121" width="17.8" height="7"/>
		</g>
		<g>
			<rect x="237.9" y="741.7" fill="#1F2121" width="17.8" height="7"/>
		</g>
		<g>
			<rect x="128.8" y="644.6" fill="#1F2121" width="81" height="7"/>
		</g>
	</g>
	<g>
		<g>
			<g>
				<polygon fill="#0A82A3" points="398.4,775 346.2,807.2 346.2,860.5 398.4,851.2 				"/>
				<path fill="#1F2121" d="M342.7,864.7v-59.4l59.1-36.5v85.3L342.7,864.7z M349.7,809.2v47.1l45.1-8.1v-66.9L349.7,809.2z"/>
			</g>
			<g>
				<polygon fill="#F26522" points="346.2,755.9 346.2,896.2 322.5,872.5 322.5,831.3 				"/>
				<path fill="#1F2121" d="M349.7,904.7L319,873.9v-43.2l30.7-97.6V904.7z M326,871l16.7,16.7V778.7L326,831.8V871z"/>
			</g>
			<g>
				<polygon fill="#F26522" points="470.5,692.7 445.6,610 420.8,692.7 398.4,775 398.4,851.2 445.6,900.8 492.9,851.2 492.9,775 
									"/>
				<path fill="#1F2121" d="M445.6,905.9l-50.8-53.3v-78l22.6-82.7l28.2-94l28.2,93.9l22.6,82.8v78L445.6,905.9z M401.9,849.8
					l43.8,46l43.8-46v-74.3l-22.3-81.8l-21.4-71.5l-21.5,71.6l-22.3,81.7V849.8z"/>
			</g>
			<g>
				<path fill="#0A82A3" d="M464.6,784.3L464.6,784.3c-8.5-14.6-29.5-14.6-37.9,0l0,0l-17.2,32.5v30.1l36.1-14.3l36.1,14.3v-30.1
					L464.6,784.3z"/>
				<path fill="#1F2121" d="M485.3,852l-39.6-15.7L406,852V816l17.6-33.4c4.6-7.9,12.8-12.7,22-12.7c9.2,0,17.4,4.7,22,12.7l0.1,0.1
					l17.6,33.3V852z M413,817.7v24l32.6-12.9l32.6,12.9v-24L461.5,786c-3.3-5.7-9.3-9.1-15.9-9.1c-6.6,0-12.6,3.4-15.9,9.1
					L413,817.7z"/>
			</g>
			<g>
				<polygon fill="#0A82A3" points="492.9,775 545.1,807.2 545.1,860.5 492.9,851.2 				"/>
				<path fill="#1F2121" d="M548.6,864.7l-59.1-10.6v-85.3l59.1,36.5V864.7z M496.4,848.2l45.1,8.1v-47.1l-45.1-27.9V848.2z"/>
			</g>
			<g>
				<polygon fill="#F26522" points="545.1,755.9 545.1,896.2 568.8,872.5 568.8,831.3 				"/>
				<path fill="#1F2121" d="M541.6,904.7V733.1l30.7,97.6v43.2L541.6,904.7z M548.6,778.7v109.1l16.7-16.7v-39.2L548.6,778.7z"/>
			</g>
			<g>
				<polygon fill="#0A82A3" points="424.4,680.9 434,699.4 424.4,743 403.7,755.4 				"/>
				<path fill="#1F2121" d="M398,762.9l25.4-91.5l14.4,27.5l-10.3,46.3L398,762.9z M425.4,690.4l-15.9,57.5l11.8-7.1l9.1-40.9
					L425.4,690.4z"/>
			</g>
			<g>
				<polygon fill="#0A82A3" points="466.9,680.9 457.2,699.4 466.9,743 487.6,755.4 				"/>
				<path fill="#1F2121" d="M493.3,762.9l-29.5-17.7L453.5,699l14.4-27.5L493.3,762.9z M470,740.8l11.8,7.1l-15.9-57.5l-5,9.5
					L470,740.8z"/>
			</g>
			<g>
				<rect x="442.1" y="610" fill="#1F2121" width="7" height="73.5"/>
			</g>
			<g>
				<rect x="442.1" y="691.2" fill="#1F2121" width="7" height="12.9"/>
			</g>
			<g>
				<rect x="442.1" y="713.9" fill="#1F2121" width="7" height="9.3"/>
			</g>
		</g>
		<g>
			<polygon fill="#F26522" points="424.4,680.9 343.5,636.6 360.7,560.6 312.1,597.7 297.2,678.1 402.6,759.5 			"/>
			<path fill="#1F2121" d="M404.6,765.5l-111.2-85.9l15.5-83.8l57.4-43.9l-18.7,82.9l80.9,44.4L404.6,765.5z M301,676.6l99.6,77
				l19.7-70.9l-80.7-44.2l15.6-69.2l-39.9,30.5L301,676.6z"/>
		</g>
		<g>
			<polygon fill="#0A82A3" points="319.4,695.3 349.8,678.1 376.1,697.6 372.3,736.1 			"/>
			<path fill="#1F2121" d="M375.1,742.8l-62-48l37-20.9l29.7,22L375.1,742.8z M325.7,695.7l43.7,33.8l3-30.3l-22.9-17L325.7,695.7z"
				/>
		</g>
		<g>
			
				<rect x="324.3" y="674.6" transform="matrix(0.8564 0.5163 -0.5163 0.8564 403.8642 -96.0537)" fill="#1F2121" width="100.7" height="7"/>
		</g>
		<g>
			<polygon fill="#0A82A3" points="356.9,577.2 337.8,592.6 333.7,612 344.9,630.4 			"/>
			<path fill="#1F2121" d="M346.5,639.6l-16.4-27l4.6-22l28-22.5L346.5,639.6z M337.5,611.3l6,9.8l7.9-35l-10.4,8.3L337.5,611.3z"/>
		</g>
		<g>
			<polygon fill="#F26522" points="466.9,680.9 547.7,636.6 530.6,560.6 579.2,597.7 594.1,678.1 488.7,759.5 			"/>
			<path fill="#1F2121" d="M486.7,765.5l-23.9-86.3l80.9-44.4l-18.7-82.9l57.4,43.9l15.5,83.8L486.7,765.5z M471,682.7l19.7,70.9
				l99.6-77L576,599.7l-39.9-30.5l15.6,69.2L471,682.7z"/>
		</g>
		<g>
			<polygon fill="#0A82A3" points="571.9,695.3 541.5,678.1 515.1,697.6 519,736.1 			"/>
			<path fill="#1F2121" d="M516.1,742.8l-4.7-46.8l29.7-22l37,20.9L516.1,742.8z M518.8,699.2l3,30.3l43.7-33.8l-23.8-13.5
				L518.8,699.2z"/>
		</g>
		<g>
			
				<rect x="513.2" y="627.7" transform="matrix(0.5164 0.8564 -0.8564 0.5164 830.5464 -114.5131)" fill="#1F2121" width="7" height="100.7"/>
		</g>
		<g>
			<polygon fill="#0A82A3" points="534.3,577.2 553.5,592.6 557.5,612 546.3,630.4 			"/>
			<path fill="#1F2121" d="M544.8,639.6l-16.1-71.4l28,22.5l4.6,22L544.8,639.6z M540,586.2l7.9,35l6-9.8l-3.5-16.8L540,586.2z"/>
		</g>
		<g>
			<path fill="#F26522" d="M360.8,798.2c-0.4,0.2,0,27,0,27l15.4,20.6v-57.1L360.8,798.2z"/>
			<path fill="#1F2121" d="M379.6,856.4l-22.3-29.9l0-1.1c-0.4-28.8-0.4-28.8,1.7-30l20.7-12.8V856.4z M364.3,824l8.4,11.2V795
				l-8.5,5.2C364.1,804.1,364.1,814.5,364.3,824z"/>
		</g>
		<g>
			<path fill="#F26522" d="M530.5,798.2c0.4,0.2,0,27,0,27l-15.4,20.6v-57.1L530.5,798.2z"/>
			<path fill="#1F2121" d="M511.6,856.4v-73.9l20.7,12.8c2.1,1.3,2.1,1.3,1.7,30l0,1.1L511.6,856.4z M518.6,795v40.3L527,824
				c0.1-9.6,0.2-19.9,0.1-23.8L518.6,795z"/>
		</g>
	</g>
	<g>
		<g>
			<rect x="958.7" y="755.5" fill="#F26522" width="13.9" height="58.2"/>
			<path fill="#1F2121" d="M976.1,817.2h-20.9V752h20.9V817.2z M962.2,810.2h6.9V759h-6.9V810.2z"/>
		</g>
		<g>
			<rect x="1001.6" y="735" fill="#F26522" width="13.9" height="106.9"/>
			<path fill="#1F2121" d="M1019,845.4h-20.9V731.5h20.9V845.4z M1005.1,838.4h6.9v-99.9h-6.9V838.4z"/>
		</g>
		<g>
			<polygon fill="#F26522" points="1139,782 1139,876.2 1058.7,858 1058.7,788.4 			"/>
			<path fill="#1F2121" d="M1142.5,880.6l-87.3-19.8v-75.6l87.3-7V880.6z M1062.2,855.2l73.3,16.6v-86.1l-73.3,5.9V855.2z"/>
		</g>
		<g>
			<polygon fill="#0A82A3" points="1058.7,788.4 985.8,788.4 985.8,837.8 1058.7,866.8 			"/>
			<path fill="#1F2121" d="M1062.2,872l-79.9-31.8v-55.2h79.9V872z M989.3,835.4l65.9,26.2v-69.7h-65.9V835.4z"/>
		</g>
		<g>
			<polygon fill="#F26522" points="985.8,788.4 930,788.4 930,810.7 985.8,829.1 			"/>
			<path fill="#1F2121" d="M989.3,833.9l-62.8-20.7v-28.2h62.8V833.9z M933.5,808.1l48.8,16.1v-32.3h-48.8V808.1z"/>
		</g>
		<g>
			<polygon fill="#F26522" points="1093.6,713.8 1093.6,668.3 1082.7,652.1 1082.7,618.4 1092.6,608.5 1092.6,577.3 1075.3,577.3 
				1032.8,645.5 1032.8,685.9 1058.7,788.4 			"/>
			<path fill="#1F2121" d="M1057.7,798.8l-28.4-112.5v-41.8l44.1-70.7h22.7v36.2l-9.9,9.9v31.2l11,16.1v47.4L1057.7,798.8z
				 M1036.3,685.5l23.4,92.6l30.5-65.1v-43.6l-11-16.1v-36.3l9.9-9.9v-26.3h-11.8l-41,65.8V685.5z"/>
		</g>
		<g>
			<polygon fill="#1F2121" points="1102.4,866.8 1095.4,866.8 1095.4,820 1137.5,800.3 1140.5,806.7 1102.4,824.5 			"/>
		</g>
		<g>
			<polygon fill="#0A82A3" points="1036.7,701.2 1057,703.3 1063.2,730.1 1050.4,755.5 			"/>
			<path fill="#1F2121" d="M1049.3,765.4l-17.2-68.2l27.7,2.8l7.1,30.5L1049.3,765.4z M1041.3,705.2l10.2,40.3l8-15.9l-5.4-23.1
				L1041.3,705.2z"/>
		</g>
		<g>
			<polygon fill="#1F2121" points="1073.3,686.4 1032.8,686.4 1032.8,679.4 1066.3,679.4 1066.3,672.5 1056.9,659.7 1056.9,628.7 
				1075.2,628.7 1075.2,635.7 1063.9,635.7 1063.9,657.4 1073.3,670.3 			"/>
		</g>
		<g>
			<polygon fill="#F26522" points="996.1,841.9 1004.1,829.1 1032.8,839.6 1040.7,859.6 			"/>
			<path fill="#1F2121" d="M1046.9,865.9l-56.1-22.3l11.8-18.8l32.8,12L1046.9,865.9z M1001.3,840.2l33.2,13.2l-4.4-11.1l-24.5-9
				L1001.3,840.2z"/>
		</g>
		<g>
			<polygon fill="#0A82A3" points="930,810.7 930,759.2 939.3,749.5 939.3,813.7 			"/>
			<path fill="#1F2121" d="M942.8,818.5l-16.2-5.4v-55.4l16.2-17.1V818.5z M933.5,808.1l2.2,0.7v-50.6l-2.2,2.3V808.1z"/>
		</g>
		<g>
			<rect x="1305.4" y="755.5" fill="#F26522" width="13.9" height="58.2"/>
			<path fill="#1F2121" d="M1322.8,817.2h-20.9V752h20.9V817.2z M1308.9,810.2h6.9V759h-6.9V810.2z"/>
		</g>
		<g>
			<rect x="1262.5" y="735" fill="#F26522" width="13.9" height="106.9"/>
			<path fill="#1F2121" d="M1279.9,845.4H1259V731.5h20.9V845.4z M1266,838.4h6.9v-99.9h-6.9V838.4z"/>
		</g>
		<g>
			<polygon fill="#F26522" points="1139,782 1139,876.2 1219.3,858 1219.3,788.4 			"/>
			<path fill="#1F2121" d="M1135.5,880.6V778.2l87.3,7v75.6L1135.5,880.6z M1142.5,785.8v86.1l73.3-16.6v-63.5L1142.5,785.8z"/>
		</g>
		<g>
			<polygon fill="#F26522" points="1139,876.2 1070.5,860.7 1070.5,881.5 1139,910.3 1207.5,881.5 1207.5,860.7 			"/>
			<path fill="#1F2121" d="M1139,914.1l-72-30.3v-27.5l72,16.3l72-16.3v27.5L1139,914.1z M1074,879.1l65,27.4l65-27.4v-14.1
				l-65,14.7l-65-14.7V879.1z"/>
		</g>
		<g>
			<polygon fill="#0A82A3" points="1219.3,788.4 1292.2,788.4 1292.2,837.8 1219.3,866.8 			"/>
			<path fill="#1F2121" d="M1215.8,872v-87h79.9v55.2L1215.8,872z M1222.8,791.9v69.7l65.9-26.2v-43.5H1222.8z"/>
		</g>
		<g>
			<polygon fill="#F26522" points="1292.2,788.4 1348,788.4 1348,810.7 1292.2,829.1 			"/>
			<path fill="#1F2121" d="M1288.7,833.9v-49h62.8v28.2L1288.7,833.9z M1295.7,791.9v32.3l48.8-16.1v-16.2H1295.7z"/>
		</g>
		<g>
			<polygon fill="#0A82A3" points="1184.4,713.8 1139,705 1093.6,713.8 1058.7,788.4 1139,782 1219.3,788.4 			"/>
			<path fill="#1F2121" d="M1225,792.4l-86-6.9l-86,6.9l38.3-81.7l47.8-9.3l47.8,9.3L1225,792.4z M1096.1,716.9l-31.6,67.6l74.6-6
				l0.3,0l74.3,6l-31.6-67.6l-43-8.3L1096.1,716.9z"/>
		</g>
		<g>
			<polygon fill="#F26522" points="1184.4,713.8 1184.4,668.3 1195.3,652.1 1195.3,618.4 1185.5,608.5 1185.5,577.3 1202.7,577.3 
				1245.2,645.5 1245.2,685.9 1219.3,788.4 			"/>
			<path fill="#1F2121" d="M1220.3,798.8l-39.4-84.3v-47.4l11-16.1v-31.2l-9.9-9.9v-36.2h22.7l44.1,70.7v41.8l-0.1,0.4L1220.3,798.8
				z M1187.9,713l30.5,65.1l23.4-92.6v-38.9l-41-65.8H1189V607l9.9,9.9v36.3l-11,16.1V713z"/>
		</g>
		<g>
			<polygon fill="#1F2121" points="1182.7,866.8 1175.7,866.8 1175.7,824.5 1137.5,806.7 1140.5,800.3 1182.7,820 			"/>
		</g>
		<g>
			<polygon fill="#0A82A3" points="1241.4,701.2 1221.1,703.3 1214.8,730.1 1227.7,755.5 			"/>
			<path fill="#1F2121" d="M1228.8,765.4l-17.6-34.9l7.1-30.5l27.7-2.8L1228.8,765.4z M1218.5,729.6l8,15.9l10.2-40.3l-12.8,1.3
				L1218.5,729.6z"/>
		</g>
		<g>
			<polygon fill="#1F2121" points="1245.3,686.4 1204.8,686.4 1204.8,670.3 1214.1,657.4 1214.1,635.7 1202.8,635.7 1202.8,628.7 
				1221.1,628.7 1221.1,659.7 1211.8,672.5 1211.8,679.4 1245.3,679.4 			"/>
		</g>
		<g>
			<polygon fill="#F26522" points="1282,841.9 1273.9,829.1 1245.2,839.6 1237.3,859.6 			"/>
			<path fill="#1F2121" d="M1231.1,865.9l11.5-29.1l32.8-12l11.8,18.8L1231.1,865.9z M1247.9,842.3l-4.4,11.1l33.2-13.2l-4.3-6.8
				L1247.9,842.3z"/>
		</g>
		<g>
			<polygon fill="#0A82A3" points="1348,810.7 1348,759.2 1338.8,749.5 1338.8,813.7 			"/>
			<path fill="#1F2121" d="M1335.3,818.5v-77.8l16.2,17.1v55.4L1335.3,818.5z M1342.3,758.2v50.6l2.2-0.7v-47.5L1342.3,758.2z"/>
		</g>
		<g>
			<rect x="1135.5" y="705" fill="#1F2121" width="7" height="77"/>
		</g>
		<g>
			<rect x="1080.5" y="551.1" fill="#1F2121" width="7" height="26.2"/>
		</g>
		<g>
			<rect x="1190.5" y="551.1" fill="#1F2121" width="7" height="26.2"/>
		</g>
	</g>
	<g>
		<g>
			<g>
				<rect x="364.8" y="239.8" fill="#F26522" width="13.9" height="58.2"/>
				<path fill="#1F2121" d="M382.2,301.5h-20.9v-65.2h20.9V301.5z M368.3,294.5h6.9v-51.2h-6.9V294.5z"/>
			</g>
			<g>
				<rect x="407.7" y="219.3" fill="#F26522" width="13.9" height="106.9"/>
				<path fill="#1F2121" d="M425.1,329.7h-20.9V215.8h20.9V329.7z M411.2,322.7h6.9v-99.9h-6.9V322.7z"/>
			</g>
			<g>
				<polygon fill="#F26522" points="545.1,266.3 545.1,360.5 464.8,342.3 464.8,272.8 				"/>
				<path fill="#1F2121" d="M548.6,364.9l-87.3-19.8v-75.6l87.3-7V364.9z M468.3,339.5l73.3,16.6v-86.1l-73.3,5.9V339.5z"/>
			</g>
			<g>
				<polygon fill="#0A82A3" points="464.8,272.8 391.9,272.8 391.9,322.1 464.8,351.1 				"/>
				<path fill="#1F2121" d="M468.3,356.3l-79.9-31.8v-55.2h79.9V356.3z M395.4,319.8l65.9,26.2v-69.7h-65.9V319.8z"/>
			</g>
			<g>
				<polygon fill="#F26522" points="391.9,272.8 336.1,272.8 336.1,295 391.9,313.4 				"/>
				<path fill="#1F2121" d="M395.4,318.3l-62.8-20.7v-28.2h62.8V318.3z M339.6,292.5l48.8,16.1v-32.3h-48.8V292.5z"/>
			</g>
			<g>
				<polygon fill="#1F2121" points="508.4,351.1 501.4,351.1 501.4,304.4 543.6,284.7 546.6,291 508.4,308.8 				"/>
			</g>
			<g>
				<polygon fill="#F26522" points="402.1,326.2 410.2,313.4 438.9,323.9 446.8,344 				"/>
				<path fill="#1F2121" d="M453,350.2l-56.1-22.3l11.8-18.8l32.8,12L453,350.2z M407.3,324.5l33.2,13.2l-4.4-11.1l-24.5-9
					L407.3,324.5z"/>
			</g>
			<g>
				<rect x="711.5" y="239.8" fill="#F26522" width="13.9" height="58.2"/>
				<path fill="#1F2121" d="M728.9,301.5H708v-65.2h20.9V301.5z M715,294.5h6.9v-51.2H715V294.5z"/>
			</g>
			<g>
				<rect x="668.6" y="219.3" fill="#F26522" width="13.9" height="106.9"/>
				<path fill="#1F2121" d="M686,329.7h-20.9V215.8H686V329.7z M672.1,322.7h6.9v-99.9h-6.9V322.7z"/>
			</g>
			<g>
				<polygon fill="#F26522" points="545.1,266.3 545.1,360.5 625.4,342.3 625.4,272.8 				"/>
				<path fill="#1F2121" d="M541.6,364.9V262.5l87.3,7v75.6L541.6,364.9z M548.6,270.1v86.1l73.3-16.6V276L548.6,270.1z"/>
			</g>
			<g>
				<polygon fill="#F26522" points="545.1,360.5 476.6,345 476.6,365.8 545.1,394.6 613.6,365.8 613.6,345 				"/>
				<path fill="#1F2121" d="M545.1,398.4l-72-30.3v-27.5l72,16.3l72-16.3v27.5L545.1,398.4z M480.1,363.5l65,27.4l65-27.4v-14.1
					l-65,14.7l-65-14.7V363.5z"/>
			</g>
			<g>
				<polygon fill="#0A82A3" points="625.4,272.8 698.3,272.8 698.3,322.1 625.4,351.1 				"/>
				<path fill="#1F2121" d="M621.9,356.3v-87h79.9v55.2L621.9,356.3z M628.9,276.3V346l65.9-26.2v-43.5H628.9z"/>
			</g>
			<g>
				<polygon fill="#F26522" points="698.3,272.8 754.1,272.8 754.1,295 698.3,313.4 				"/>
				<path fill="#1F2121" d="M694.8,318.3v-49h62.8v28.2L694.8,318.3z M701.8,276.3v32.3l48.8-16.1v-16.2H701.8z"/>
			</g>
			<g>
				<polygon fill="#1F2121" points="588.7,351.1 581.7,351.1 581.7,308.8 543.6,291 546.6,284.7 588.7,304.4 				"/>
			</g>
			<g>
				<polygon fill="#F26522" points="688,326.2 680,313.4 651.3,323.9 643.4,344 				"/>
				<path fill="#1F2121" d="M637.2,350.2l11.5-29.1l32.8-12l11.8,18.8L637.2,350.2z M654,326.7l-4.4,11.1l33.2-13.2l-4.3-6.8
					L654,326.7z"/>
			</g>
		</g>
		<g>
			<g>
				<polygon fill="#0A82A3" points="592.4,275.7 644.5,198.5 644.5,145.2 592.4,199.6 				"/>
				<path fill="#1F2121" d="M588.9,287.2v-89l59.1-61.7v63L588.9,287.2z M595.9,201v63.3l45.1-66.9v-43.5L595.9,201z"/>
			</g>
			<g>
				<polygon fill="#F26522" points="520.3,358 545.1,440.8 569.9,358 592.4,275.7 592.4,199.6 545.1,69.7 497.8,199.6 497.8,275.7 
									"/>
				<path fill="#1F2121" d="M545.1,452.9L516.9,359l-22.6-82.8V199l0.2-0.6l50.6-138.9L595.9,199v77.2l-22.6,82.7L545.1,452.9z
					 M501.3,275.3l22.3,81.8l21.4,71.5l21.5-71.6l22.3-81.7v-75L545.1,79.9l-43.8,120.3V275.3z"/>
			</g>
			<g>
				<polygon fill="#0A82A3" points="526.1,266.4 545.1,299.1 564.1,266.4 581.2,233.9 581.2,203.8 545.1,184.2 509,203.8 509,233.9 
									"/>
				<path fill="#1F2121" d="M545.1,306L523,268l-17.6-33.3v-33l39.6-21.5l39.6,21.5v33l-17.6,33.4L545.1,306z M529.2,264.7
					l15.9,27.4l15.9-27.4l16.7-31.7v-27.1l-32.6-17.7l-32.6,17.7V233L529.2,264.7z"/>
			</g>
			<g>
				<polygon fill="#0A82A3" points="497.8,275.7 445.7,198.5 445.7,145.2 497.8,199.6 				"/>
				<path fill="#1F2121" d="M501.3,287.2l-59.1-87.6v-63l59.1,61.7V287.2z M449.2,197.4l45.1,66.9V201l-45.1-47.1V197.4z"/>
			</g>
			<g>
				<polygon fill="#0A82A3" points="566.4,369.8 556.7,351.3 566.4,307.7 587,295.3 				"/>
				<path fill="#1F2121" d="M567.4,379.3L553,351.8l10.3-46.3l29.5-17.7L567.4,379.3z M560.4,350.8l5,9.5l15.9-57.5l-11.8,7.1
					L560.4,350.8z"/>
			</g>
			<g>
				<polygon fill="#0A82A3" points="523.8,369.8 533.5,351.3 523.8,307.7 503.2,295.3 				"/>
				<path fill="#1F2121" d="M522.8,379.3l-25.4-91.5l29.5,17.7l10.3,46.3L522.8,379.3z M508.9,302.9l15.9,57.5l5-9.5l-9.1-40.9
					L508.9,302.9z"/>
			</g>
			<g>
				<rect x="541.6" y="367.2" fill="#1F2121" width="7" height="73.5"/>
			</g>
			<g>
				<rect x="541.6" y="346.7" fill="#1F2121" width="7" height="12.9"/>
			</g>
			<g>
				<rect x="541.6" y="327.6" fill="#1F2121" width="7" height="9.3"/>
			</g>
			<g>
				<polygon fill="#F26522" points="608.4,252 608.4,231.5 619.7,215.4 634.4,213.5 				"/>
				<path fill="#1F2121" d="M604.9,263.4v-33.1l12.9-18.3l23.8-3L604.9,263.4z M611.9,232.6v8l15.3-22.6l-5.5,0.7L611.9,232.6z"/>
			</g>
			<g>
				<polygon fill="#F26522" points="481.8,252 481.8,231.5 470.5,215.4 455.8,213.5 				"/>
				<path fill="#1F2121" d="M485.3,263.4l-36.7-54.4l23.8,3l12.9,18.3V263.4z M463,218l15.3,22.6v-8l-9.8-13.9L463,218z"/>
			</g>
		</g>
		<g>
			<path fill="#F26522" d="M435.1,120.1L435.1,120.1c-5.9,0-10.7,4.8-10.7,10.7v72.1c0,5.9,4.8,10.7,10.7,10.7h0
				c5.9,0,10.7-4.8,10.7-10.7v-72.1C445.8,124.8,441,120.1,435.1,120.1z"/>
			<path fill="#1F2121" d="M435.1,217c-7.8,0-14.2-6.4-14.2-14.2v-72.1c0-7.8,6.4-14.2,14.2-14.2s14.2,6.4,14.2,14.2v72.1
				C449.3,210.6,443,217,435.1,217z M435.1,123.6c-4,0-7.2,3.2-7.2,7.2v72.1c0,4,3.2,7.2,7.2,7.2s7.2-3.2,7.2-7.2v-72.1
				C442.3,126.8,439.1,123.6,435.1,123.6z"/>
		</g>
		<g>
			<path fill="#F26522" d="M655,120.1L655,120.1c5.9,0,10.7,4.8,10.7,10.7v72.1c0,5.9-4.8,10.7-10.7,10.7h0
				c-5.9,0-10.7-4.8-10.7-10.7v-72.1C644.4,124.8,649.1,120.1,655,120.1z"/>
			<path fill="#1F2121" d="M655,217c-7.8,0-14.2-6.4-14.2-14.2v-72.1c0-7.8,6.4-14.2,14.2-14.2s14.2,6.4,14.2,14.2v72.1
				C669.2,210.6,662.9,217,655,217z M655,123.6c-4,0-7.2,3.2-7.2,7.2v72.1c0,4,3.2,7.2,7.2,7.2s7.2-3.2,7.2-7.2v-72.1
				C662.2,126.8,659,123.6,655,123.6z"/>
		</g>
	</g>
</g>
</svg>
